<?xml version="1.0" standalone="no"?>
<!DOCTYPE svg PUBLIC "-//W3C//DTD SVG 20010904//EN"
 "http://www.w3.org/TR/2001/REC-SVG-20010904/DTD/svg10.dtd">
<svg version="1.0" xmlns="http://www.w3.org/2000/svg"
 width="90.000000pt" height="90.000000pt" viewBox="0 0 90.000000 90.000000"
 preserveAspectRatio="xMidYMid meet">

<g transform="translate(0.000000,90.000000) scale(0.100000,-0.100000)"
fill="#000000" stroke="none">
<path fill="white" d="M420 701 c0 -110 3 -141 13 -141 7 0 26 -14 43 -31 24 -25 29 -39 29
-79 0 -43 -5 -54 -33 -82 -28 -28 -39 -33 -82 -33 -43 0 -54 5 -82 33 -28 28
-33 39 -33 82 0 40 5 54 29 79 17 17 36 31 43 31 10 0 13 30 13 135 0 155 3
152 -86 108 -64 -31 -127 -96 -157 -161 -17 -37 -22 -65 -21 -132 1 -100 21
-156 82 -222 55 -61 62 -78 62 -157 l0 -71 150 0 150 0 0 34 c0 44 18 61 85
82 83 27 95 42 95 124 l0 68 43 14 c23 8 43 22 45 31 2 10 -17 41 -41 70 -32
38 -48 66 -56 105 -28 135 -121 229 -243 247 l-48 7 0 -141z"/>
</g>
</svg>
